<svg
        data-keep-colors="true"
        width="32" height="30" viewBox="0 0 32 30" fill="none" xmlns="http://www.w3.org/2000/svg">
    <path d="M14.6667 29.3333C6.58 29.3333 0 22.7533 0 14.6667C0 6.58 6.58 0 14.6667 0C17.48 0 20.216 0.802667 22.5787 2.31867L21.4973 4.00133C19.4587 2.69333 17.096 2 14.6667 2C7.68267 2 2 7.68267 2 14.6667C2 21.6507 7.68267 27.3333 14.6667 27.3333C21.6507 27.3333 27.3333 21.6507 27.3333 14.6667C27.3333 14.2493 27.3133 13.836 27.2747 13.4293L29.2653 13.236C29.3107 13.708 29.3333 14.184 29.3333 14.6667C29.3333 22.7533 22.7533 29.3333 14.6667 29.3333Z" fill="#34C54B"/>
    <path d="M16.3336 18.0003C16.0776 18.0003 15.8216 17.903 15.627 17.707L9.62695 11.707L11.0416 10.2923L16.335 15.5856L30.2936 1.62695L31.7083 3.04162L17.0416 17.7083C16.8456 17.903 16.5896 18.0003 16.3336 18.0003Z" fill="#34C54B"/>
</svg>
