<?xml version="1.0" standalone="no"?>
<!DOCTYPE svg PUBLIC "-//W3C//DTD SVG 20010904//EN"
 "http://www.w3.org/TR/2001/REC-SVG-20010904/DTD/svg10.dtd">
<svg version="1.0" xmlns="http://www.w3.org/2000/svg"
 width="300.000000pt" height="300.000000pt" viewBox="0 0 300.000000 300.000000"
 preserveAspectRatio="xMidYMid meet">
<metadata>
Created by potrace 1.10, written by Peter Selinger 2001-2011
</metadata>
<g transform="translate(0.000000,300.000000) scale(0.100000,-0.100000)"
fill="#000000" stroke="none">
<path d="M1275 2739 c-566 -83 -987 -541 -1022 -1114 -30 -504 286 -991 762
-1170 140 -53 211 -66 385 -72 143 -4 179 -2 269 17 474 97 834 457 931 931
19 90 21 126 17 269 -7 206 -38 334 -122 500 -113 223 -338 440 -559 539 -206
93 -453 130 -661 100z m388 -54 c162 -34 335 -111 464 -207 196 -146 353 -380
419 -623 32 -119 44 -342 25 -465 -57 -372 -294 -692 -637 -857 -154 -74 -274
-104 -446 -110 -336 -13 -627 99 -861 330 -352 349 -437 888 -209 1331 175
342 501 567 888 616 89 11 265 4 357 -15z"/>
<path d="M1340 2663 c-433 -45 -796 -329 -943 -740 -76 -209 -78 -491 -5 -708
66 -201 214 -404 387 -536 90 -68 265 -153 386 -186 92 -25 114 -28 270 -27
196 0 280 16 433 82 406 175 672 580 672 1021 0 414 -262 820 -643 996 -170
78 -384 116 -557 98z m321 -63 c315 -67 582 -275 725 -565 30 -60 66 -155 81
-210 23 -88 26 -120 27 -260 1 -138 -3 -173 -23 -250 -53 -202 -140 -355 -285
-501 -146 -145 -299 -232 -501 -285 -77 -20 -112 -24 -250 -23 -140 1 -172 4
-260 27 -475 127 -797 542 -796 1027 0 297 109 559 319 762 260 251 610 352
963 278z"/>
<path d="M1707 2106 c-81 -30 -131 -77 -178 -166 -34 -67 -39 -204 -10 -297
47 -153 181 -259 332 -264 43 -2 55 2 71 20 23 30 23 52 -2 79 -14 15 -33 22
-58 22 -79 0 -184 73 -216 150 -22 54 -30 148 -16 200 28 105 103 155 226 148
68 -3 77 -6 106 -36 29 -28 33 -39 36 -101 4 -60 1 -72 -17 -90 -12 -12 -32
-21 -45 -21 -29 0 -66 42 -66 75 0 46 -62 64 -100 30 -41 -37 -11 -140 55
-191 28 -21 51 -29 96 -32 72 -5 108 8 154 59 43 48 48 67 44 177 -4 78 -8 95
-34 138 -19 30 -49 60 -79 79 -46 28 -57 30 -155 32 -72 2 -118 -2 -144 -11z
m264 -49 c24 -13 58 -43 74 -66 27 -38 30 -52 34 -129 2 -67 -1 -93 -13 -117
-25 -45 -63 -68 -120 -73 -41 -3 -58 1 -86 20 -39 26 -74 87 -64 112 10 25 30
19 44 -14 15 -37 64 -80 91 -80 33 0 78 29 94 60 17 34 20 116 4 157 -13 34
-55 80 -91 99 -40 21 -157 18 -210 -5 -52 -23 -101 -72 -122 -123 -19 -45 -20
-197 -3 -245 34 -92 132 -175 224 -189 48 -7 76 -30 49 -40 -23 -9 -92 3 -142
26 -62 27 -130 94 -161 159 -25 51 -28 67 -28 166 0 101 2 114 27 161 53 101
130 142 269 143 72 1 93 -3 130 -22z"/>
<path d="M984 1981 c-60 -28 -96 -80 -102 -146 -2 -30 -2 -65 2 -79 8 -33 61
-93 97 -112 40 -20 106 -21 126 -2 35 35 6 108 -44 108 -30 0 -63 33 -63 64 0
15 11 33 28 46 23 19 36 21 84 17 106 -9 143 -57 136 -180 -4 -91 -36 -144
-105 -178 -38 -18 -57 -21 -133 -17 -76 4 -95 8 -137 34 -61 37 -110 109 -118
172 -9 70 -25 96 -62 100 -51 5 -66 -20 -61 -98 3 -36 14 -87 26 -113 29 -65
113 -151 181 -184 49 -25 70 -28 173 -32 109 -3 120 -1 175 24 76 34 119 76
154 150 26 53 29 71 29 158 0 109 -10 144 -60 201 -52 58 -101 79 -200 83 -68
3 -93 0 -126 -16z m203 -36 c53 -16 115 -71 133 -121 18 -47 12 -194 -11 -244
-25 -55 -71 -105 -124 -133 -35 -19 -56 -22 -160 -22 -112 0 -124 2 -173 28
-104 55 -176 157 -177 252 0 72 24 68 41 -7 24 -102 100 -191 192 -222 72 -25
186 -21 249 8 91 43 138 130 131 246 -7 124 -69 184 -190 185 -62 0 -70 -2
-98 -30 -16 -16 -32 -43 -35 -60 -8 -40 25 -92 70 -111 39 -16 47 -44 14 -44
-67 0 -129 67 -129 139 0 123 115 181 267 136z"/>
<path d="M832 1167 c-87 -88 -97 -112 -62 -147 32 -32 61 -25 115 30 l49 50
112 -111 c88 -87 118 -111 139 -111 22 0 51 23 139 111 l111 111 111 -111 c88
-87 118 -111 139 -111 21 0 52 24 139 110 l111 111 52 -49 c56 -55 88 -63 118
-30 35 39 23 68 -62 152 -55 53 -88 78 -104 78 -17 0 -56 -33 -136 -112 l-113
-112 -113 112 c-81 80 -121 112 -138 112 -17 0 -56 -32 -136 -112 l-113 -112
-113 112 c-82 81 -121 112 -138 112 -17 0 -49 -24 -107 -83z m213 -58 c93 -94
129 -120 155 -111 8 2 60 49 116 103 57 56 109 99 120 99 11 0 58 -39 109 -91
93 -94 129 -120 155 -111 8 2 60 49 116 103 59 58 109 99 121 99 24 0 147
-125 138 -140 -11 -17 -26 -11 -72 30 -25 22 -55 40 -66 40 -11 0 -64 -44
-127 -105 -59 -58 -113 -105 -120 -105 -6 0 -61 47 -120 105 -69 66 -117 105
-130 105 -14 0 -62 -39 -130 -105 -60 -58 -114 -105 -120 -105 -7 0 -61 47
-120 105 -64 61 -118 105 -129 105 -11 0 -41 -18 -66 -40 -50 -43 -75 -51 -75
-22 0 24 112 132 137 132 10 0 59 -41 108 -91z"/>
</g>
</svg>
